<svg width="26" height="18" viewBox="0 0 26 18" fill="none" xmlns="http://www.w3.org/2000/svg">
<path fill-rule="evenodd" clip-rule="evenodd" d="M1.89779 0.0167688C1.84192 0.029298 1.68476 0.0746534 1.54858 0.117604L1.301 0.195686L4.03753 2.89954C8.64788 7.45476 11.6257 10.3235 11.899 10.4728C12.5779 10.844 13.4151 10.844 14.094 10.4728C14.3672 10.3235 17.3451 7.45476 21.9549 2.90004L24.6909 0.196788L24.4438 0.102418C24.2048 0.0111056 23.8359 0.00779771 13.0981 0.00103194C6.9938 -0.00277695 1.95367 0.00428968 1.89779 0.0167688ZM0.112401 1.52298C0.0226975 1.75111 0.0177704 2.0894 0.00476693 8.85367C-0.00884612 15.9424 -0.00351265 16.2044 0.161977 16.5902L0.223693 16.734L4.15924 12.8727L8.09478 9.01144L5.8598 6.79933C4.63056 5.5827 2.85568 3.84399 1.91562 2.93557L0.206474 1.28387L0.112401 1.52298ZM21.831 5.14177L17.8982 9.00402L21.831 12.8663C24.7535 15.7365 25.7742 16.71 25.8046 16.6563C25.8272 16.6166 25.8804 16.4525 25.9228 16.2917C25.9901 16.0369 26 15.1002 26 9.00402C26 2.90781 25.9901 1.97113 25.9228 1.71633C25.8804 1.55556 25.8272 1.39147 25.8046 1.35173C25.7742 1.29806 24.7535 2.27158 21.831 5.14177ZM5.21846 13.9577L1.28983 17.8087L1.56839 17.9044C1.83928 17.9973 2.15685 18 12.9965 18C23.7599 18 24.1554 17.9967 24.419 17.9062L24.6919 17.8124L22.4634 15.6101C21.2376 14.3989 19.4632 12.6623 18.5202 11.7509L16.8057 10.0941L16.1069 10.7644C15.7226 11.133 15.2729 11.5231 15.1075 11.6313C13.8372 12.4619 12.1557 12.4619 10.8855 11.6313C10.7201 11.5231 10.2733 11.1359 9.89261 10.7706C9.51191 10.4054 9.18839 10.1066 9.17371 10.1066C9.15903 10.1066 7.37918 11.8396 5.21846 13.9577Z" fill="#377ED9"/>
</svg>
