<svg width="19" height="24" viewBox="0 0 19 24" fill="none" xmlns="http://www.w3.org/2000/svg">
<path fill-rule="evenodd" clip-rule="evenodd" d="M7.89893 0.0496635C5.90366 0.306754 4.06391 1.20887 2.64058 2.62798C1.20106 4.06319 0.30692 5.91156 0.063622 7.95501C-0.0644542 9.03118 -0.00135442 9.98631 0.27286 11.122C1.07453 14.4418 3.68808 18.5719 7.65042 22.7802C8.67231 23.8656 8.82155 24 9.00493 24C9.18288 24 9.46225 23.7411 10.5491 22.5691C14.9154 17.8606 17.4876 13.4867 17.9374 10.0054C18.2797 7.35681 17.3099 4.58253 15.358 2.62587C14.0179 1.28257 12.3701 0.436097 10.4323 0.0955457C9.83607 -0.00926095 8.53842 -0.032765 7.89893 0.0496635ZM10.0101 4.98984C11.5369 5.40794 12.6082 6.49114 13.0166 8.02961C13.1451 8.51372 13.1379 9.49451 13.0022 9.99607C12.7264 11.0151 12.1055 11.8876 11.2726 12.4264C8.59683 14.1573 5.09232 12.4003 4.8866 9.2247C4.81121 8.06146 5.24644 6.92881 6.0946 6.0806C6.71265 5.46255 7.41548 5.08967 8.27424 4.92425C8.71439 4.83943 9.58034 4.87218 10.0101 4.98984Z" fill="#377ED9"/>
</svg>
