<svg width="24" height="24" viewBox="0 0 24 24" fill="none" xmlns="http://www.w3.org/2000/svg">
<path fill-rule="evenodd" clip-rule="evenodd" d="M12.3917 0.0283865C12.3917 0.0545632 12.3389 0.438816 12.2743 0.882224C12.2098 1.32563 12.157 1.72579 12.157 1.77148C12.157 1.83875 12.2259 1.86544 12.5208 1.91245C13.9616 2.14189 15.6897 2.82155 16.9426 3.65156C17.7135 4.16224 18.2017 4.55747 18.8397 5.18754C20.4934 6.82058 21.5797 8.79616 22.0827 11.0855C22.1712 11.4883 22.1986 11.5535 22.2761 11.5471C22.5089 11.5275 23.9662 11.2796 23.9953 11.2546C24.0134 11.2389 23.9777 10.9927 23.9159 10.7073C23.0297 6.61243 20.3142 3.13515 16.5618 1.29031C15.3719 0.705274 14.1724 0.301928 13.0483 0.108793C12.8034 0.0667133 12.5554 0.020693 12.4973 0.00647879C12.4392 -0.00768851 12.3917 0.00216292 12.3917 0.0283865ZM3.67749 2.33639C3.22579 2.43026 3.01878 2.59103 1.81279 3.78464C1.17075 4.42016 0.574277 5.04952 0.487297 5.18327C-0.355608 6.47957 -0.103351 8.62822 1.23125 11.52C2.72517 14.757 5.41278 18.0236 8.49566 20.3493C10.311 21.7188 12.4751 22.8984 14.2693 23.4965C15.7519 23.9908 17.1462 24.1306 18.034 23.8739C18.6984 23.6819 18.8461 23.5699 20.1694 22.2536C21.2834 21.1458 21.4133 21.0001 21.5511 20.7051C21.6807 20.4275 21.7031 20.3267 21.7031 20.0222C21.7031 19.718 21.6806 19.6165 21.5515 19.3392C21.4112 19.038 21.2724 18.8866 19.7004 17.3197C18.3154 15.9391 17.9533 15.6029 17.7429 15.5025C17.3873 15.3327 17.0506 15.2755 16.7454 15.3329C16.2393 15.4282 16.0504 15.5689 14.874 16.7265C14.2642 17.3264 13.7294 17.8173 13.6854 17.8173C13.5715 17.8173 12.4653 17.2476 12.0385 16.9692C10.3803 15.8874 8.49599 14.0536 7.29052 12.3485C6.8759 11.762 6.68176 11.4366 6.40462 10.8638C6.23324 10.5095 6.19175 10.3799 6.21714 10.278C6.23817 10.1938 6.632 9.76287 7.32409 9.0668C8.28429 8.10107 8.4138 7.95241 8.54317 7.66724C8.78923 7.12489 8.73698 6.60783 8.38244 6.07632C8.2926 5.94159 7.49448 5.10971 6.60886 4.22763C5.16291 2.78749 4.9675 2.60956 4.69351 2.48332C4.35808 2.32879 3.97842 2.27386 3.67749 2.33639ZM12.1427 4.91141C12.0777 5.25105 11.9064 6.6052 11.926 6.62472C11.9383 6.6371 12.1169 6.68195 12.3226 6.72436C14.7288 7.22017 16.651 9.09227 17.2278 11.5017C17.2764 11.7048 17.3224 11.876 17.33 11.8821C17.3518 11.8998 19.1038 11.5941 19.1298 11.5681C19.1589 11.539 19.0783 11.1414 18.956 10.7102C18.109 7.72334 15.5911 5.43129 12.5253 4.85625L12.1662 4.78888L12.1427 4.91141Z" fill="#377ED9"/>
</svg>
