<svg width="36" height="36" viewBox="0 0 36 36" fill="none" xmlns="http://www.w3.org/2000/svg">
<path fill-rule="evenodd" clip-rule="evenodd" d="M18.5875 0.0425798C18.5875 0.0818448 18.5083 0.658224 18.4115 1.32334C18.3147 1.98845 18.2355 2.58868 18.2355 2.65722C18.2355 2.75813 18.3389 2.79817 18.7812 2.86867C20.9424 3.21284 23.5345 4.23232 25.4139 5.47733C26.5702 6.24335 27.3025 6.8362 28.2595 7.7813C30.7401 10.2309 32.3696 13.1942 33.1241 16.6282C33.2568 17.2324 33.2979 17.3303 33.4142 17.3206C33.7633 17.2913 35.9494 16.9194 35.993 16.8818C36.0201 16.8584 35.9665 16.4891 35.8738 16.0609C34.5445 9.91864 30.4713 4.70273 24.8427 1.93546C23.0579 1.05791 21.2586 0.452892 19.5724 0.163189C19.205 0.10007 18.8331 0.0310395 18.746 0.00971819C18.6588 -0.0115328 18.5875 0.00324439 18.5875 0.0425798ZM5.51624 3.50459C4.83868 3.64539 4.52817 3.88654 2.71919 5.67697C1.75612 6.63023 0.861416 7.57428 0.730945 7.7749C-0.533411 9.71936 -0.155027 12.9423 1.84688 17.28C4.08775 22.1355 8.11916 27.0354 12.7435 30.5239C15.4665 32.5781 18.7126 34.3476 21.404 35.2448C23.6279 35.9862 25.7193 36.1959 27.051 35.8109C28.0477 35.5228 28.2691 35.3548 30.2542 33.3805C31.9251 31.7187 32.12 31.5002 32.3266 31.0576C32.521 30.6412 32.5547 30.49 32.5547 30.0332C32.5547 29.577 32.5209 29.4247 32.3273 29.0088C32.1168 28.557 31.9086 28.3298 29.5506 25.9795C27.4731 23.9086 26.93 23.4044 26.6143 23.2538C26.0809 22.999 25.5758 22.9132 25.1181 22.9994C24.359 23.1423 24.0757 23.3533 22.311 25.0897C21.3964 25.9896 20.5941 26.726 20.5281 26.726C20.3573 26.726 18.6979 25.8713 18.0578 25.4538C15.5705 23.831 12.744 21.0804 10.9358 18.5227C10.3139 17.643 10.0226 17.1549 9.60693 16.2957C9.34986 15.7642 9.28762 15.5698 9.32571 15.417C9.35726 15.2907 9.948 14.6443 10.9861 13.6002C12.4264 12.1516 12.6207 11.9286 12.8148 11.5009C13.1838 10.6873 13.1055 9.91175 12.5737 9.11448C12.4389 8.91239 11.2417 7.66456 9.91329 6.34145C7.74437 4.18124 7.45125 3.91433 7.04027 3.72498C6.53711 3.49319 5.96764 3.41079 5.51624 3.50459ZM18.214 7.36712C18.1166 7.87658 17.8596 9.90781 17.8889 9.93708C17.9075 9.95566 18.1753 10.0229 18.484 10.0865C22.0933 10.8303 24.9766 13.6384 25.8417 17.2525C25.9146 17.5572 25.9836 17.814 25.9951 17.8232C26.0277 17.8497 28.6556 17.3912 28.6947 17.3522C28.7383 17.3086 28.6175 16.7121 28.4341 16.0653C27.1634 11.585 23.3866 8.14693 18.788 7.28437L18.2492 7.18332L18.214 7.36712Z" fill="white"/>
</svg>
