<svg width="32" height="32" viewBox="0 0 32 32" fill="none" xmlns="http://www.w3.org/2000/svg">
<path fill-rule="evenodd" clip-rule="evenodd" d="M0 16V32H16H32V16V0H16H0V16ZM17.3477 9.84138C17.5052 9.90719 17.6006 10.0079 17.6881 10.2008C17.8011 10.4496 17.8099 10.6241 17.8111 12.6442C17.812 14.0066 17.8381 14.9211 17.8808 15.0911C17.9804 15.4862 18.2286 15.7569 18.4981 15.7641C18.6903 15.7691 18.7638 15.7172 19.1447 15.3068C19.9535 14.4353 20.8631 12.9166 21.5663 11.2637C21.9593 10.3399 22.0798 10.2155 22.6394 10.1561C22.8549 10.1333 23.8663 10.1386 24.8869 10.1679C26.7264 10.2207 26.7439 10.2226 26.9026 10.3715C27.1089 10.5653 27.1096 10.8094 26.9056 11.3514C26.6155 12.1222 26.302 12.6023 24.575 14.9207C24.0605 15.6114 23.5899 16.3065 23.5292 16.4653C23.33 16.987 23.4011 17.0998 24.808 18.4949C26.0228 19.6994 26.5818 20.3587 26.9007 20.9624C27.0836 21.3086 27.1024 21.5336 26.974 21.8409C26.7988 22.2603 26.8104 22.2584 24.4871 22.2375L22.3993 22.2188L21.98 22.0058C21.5601 21.7926 21.3787 21.6239 19.9074 20.0788C19.3733 19.5178 18.9761 19.2736 18.7076 19.3409C18.2834 19.4474 17.9911 20.0849 17.8759 21.1544C17.7683 22.1542 17.7006 22.2053 16.4375 22.2372C12.3556 22.3405 9.70544 20.1725 6.537 14.1376C5.67275 12.4916 4.9375 10.8847 4.9375 10.6421C4.9375 10.5053 4.987 10.4076 5.10219 10.3171C5.2605 10.1925 5.33944 10.1875 7.15544 10.1875C9.51706 10.1875 9.28244 10.0788 9.91862 11.4681C10.8942 13.5988 12.0313 15.3628 12.6357 15.6834C13.2958 16.0336 13.5539 15.5751 13.6538 13.875C13.6943 13.1836 13.6094 11.9292 13.4899 11.4547C13.3919 11.0656 13.0484 10.7167 12.6612 10.6131C12.4953 10.5687 12.3467 10.4989 12.331 10.458C12.2838 10.3352 12.5671 10.0108 12.8391 9.87619C13.0786 9.75762 13.2139 9.75013 15.1114 9.75006C16.7404 9.75 17.1711 9.76763 17.3477 9.84138Z" fill="#446B97"/>
</svg>
