<svg width="32" height="32" viewBox="0 0 32 32" fill="none" xmlns="http://www.w3.org/2000/svg">
<path fill-rule="evenodd" clip-rule="evenodd" d="M0 16V32H16H32V16V0H16H0V16ZM18.9062 8.31087C21.5525 8.3635 23.671 8.483 24.4834 8.6255C25.2611 8.76194 26.1078 9.40712 26.4608 10.1324C26.8806 10.9951 27.0626 12.7505 27.0622 15.9319C27.0618 19.2063 26.8824 20.9465 26.4503 21.8695C26.1137 22.5884 25.2656 23.2373 24.4834 23.3745C21.9324 23.8219 10.0676 23.8219 7.51662 23.3745C6.60187 23.2141 5.74456 22.4845 5.43631 21.6042C5.04281 20.4804 4.91719 18.8759 4.95831 15.5C4.99137 12.788 5.03031 12.201 5.24769 11.1368C5.47794 10.0097 5.99106 9.26694 6.81631 8.86619C7.61881 8.47644 9.22619 8.36462 15.5 8.26231C15.7922 8.25756 17.325 8.27938 18.9062 8.31087ZM13.125 15.7846V19.4441L14.5781 18.6928C18.9748 16.4198 20.0709 15.8378 20.0624 15.7812C20.0552 15.734 13.2242 12.125 13.1419 12.125C13.1326 12.125 13.125 13.7718 13.125 15.7846Z" fill="#BC2A26"/>
</svg>
